<?xml version="1.0" standalone="no"?>
<!DOCTYPE svg PUBLIC "-//W3C//DTD SVG 20010904//EN"
 "http://www.w3.org/TR/2001/REC-SVG-20010904/DTD/svg10.dtd">
<svg version="1.0" xmlns="http://www.w3.org/2000/svg"
 width="521.000000pt" height="521.000000pt" viewBox="0 0 521.000000 521.000000"
 preserveAspectRatio="xMidYMid meet">
<metadata>
Created by potrace 1.11, written by Peter Selinger 2001-2013
</metadata>
<g transform="translate(0.000000,521.000000) scale(0.100000,-0.100000)"
fill="#000000" stroke="none">
<path d="M3023 4932 c-407 -826 -541 -1100 -595 -1212 -34 -69 -63 -127 -65
-130 -3 -3 -29 22 -60 55 -30 33 -97 104 -149 159 -106 112 -95 115 -114 -39
-6 -49 -13 -106 -15 -125 -3 -19 -7 -53 -10 -74 -2 -21 -7 -55 -10 -75 -2 -20
-9 -67 -14 -105 -6 -37 -11 -69 -13 -71 -2 -2 -57 12 -123 31 -66 19 -142 41
-170 49 -102 28 -301 85 -330 94 -35 11 -996 287 -1070 307 -27 7 -50 12 -52
11 -2 -3 140 -151 583 -604 427 -435 554 -567 554 -573 0 -3 -70 -40 -156 -83
l-157 -78 29 -18 c16 -9 124 -66 239 -125 116 -60 216 -114 224 -121 11 -11
-7 -61 -119 -312 -73 -164 -137 -304 -142 -310 -6 -7 -8 -13 -5 -13 3 0 -23
-63 -58 -140 -35 -77 -61 -141 -57 -141 11 -2 11 -2 147 31 72 17 137 32 146
35 9 2 65 15 125 30 60 14 116 28 124 30 8 2 55 12 103 24 49 12 91 21 93 21
5 0 1 -89 -11 -300 -2 -47 -7 -146 -11 -220 -3 -74 -7 -151 -9 -170 -2 -19 -6
-110 -10 -203 -4 -92 -8 -185 -10 -207 -2 -23 -6 -109 -10 -193 -4 -83 -9
-156 -12 -162 -4 -7 -3 -7 4 0 11 10 35 54 170 305 22 41 57 106 77 144 21 37
112 206 203 375 91 168 184 340 206 381 23 41 46 85 51 97 6 13 13 23 16 23 3
0 25 -19 50 -42 25 -22 78 -71 119 -107 40 -36 79 -71 85 -77 12 -11 82 -74
191 -171 39 -34 95 -84 125 -112 30 -27 55 -49 56 -48 1 1 5 38 8 82 4 44 9
100 11 125 2 25 7 83 10 130 3 47 7 103 9 125 2 22 7 81 11 130 8 109 14 168
20 173 2 2 90 -28 197 -66 106 -39 371 -134 588 -212 217 -78 450 -161 517
-186 68 -24 126 -44 130 -44 5 0 -102 109 -237 241 -330 324 -785 776 -799
793 -9 11 4 18 66 40 101 35 209 74 253 91 56 21 75 28 80 29 9 2 134 48 155
57 11 4 67 25 125 45 159 56 184 64 200 71 8 3 20 7 25 9 11 3 363 129 409
147 l30 11 -50 13 c-27 7 -146 36 -264 64 -118 28 -289 69 -380 90 -91 22
-176 42 -189 45 -14 3 -106 25 -205 49 -100 24 -221 53 -271 65 -49 11 -98 23
-107 26 -14 4 0 38 87 210 71 140 98 203 87 200 -9 -3 -37 -8 -62 -11 -25 -3
-56 -8 -70 -10 -14 -3 -41 -7 -60 -10 -19 -3 -71 -12 -115 -20 -44 -8 -100
-17 -125 -20 -25 -4 -49 -7 -54 -8 -11 -2 -12 17 -20 398 -4 149 -8 353 -11
455 -2 102 -7 293 -10 425 -12 522 -16 669 -18 672 -2 1 -62 -118 -134 -265z"/>
</g>
</svg>
